<mxfile host="app.diagrams.net" modified="2024-06-28T09:02:58.970Z" agent="Mozilla/5.0 (Macintosh; Intel Mac OS X 10_15_7) AppleWebKit/537.36 (KHTML, like Gecko) Chrome/126.0.0.0 Safari/537.36" etag="Q5F5QVtJyjvMi6NtEbJh" version="24.6.3" type="device">
  <diagram name="Page-1" id="12e1b939-464a-85fe-373e-61e167be1490">
    <mxGraphModel dx="1985" dy="1205" grid="1" gridSize="10" guides="1" tooltips="1" connect="1" arrows="1" fold="1" page="1" pageScale="1.5" pageWidth="1169" pageHeight="826" background="none" math="0" shadow="0">
      <root>
        <mxCell id="0" />
        <mxCell id="1" parent="0" />
        <mxCell id="60da8b9f42644d3a-2" value="&lt;div style=&quot;color: rgb(204, 204, 204); font-family: Menlo, Monaco, &amp;quot;Courier New&amp;quot;, monospace; font-size: 21px; line-height: 24px; white-space: pre;&quot;&gt;&lt;div style=&quot;text-align: left; font-size: 21px;&quot;&gt;&lt;span style=&quot;color: rgb(86, 156, 214); font-size: 21px;&quot;&gt;const&lt;/span&gt; &lt;span style=&quot;color: rgb(79, 193, 255); font-size: 21px;&quot;&gt;arrText&lt;/span&gt; &lt;span style=&quot;color: rgb(212, 212, 212); font-size: 21px;&quot;&gt;=&lt;/span&gt; [&lt;span style=&quot;color: rgb(206, 145, 120); font-size: 21px;&quot;&gt;&#39;虚拟dom1&#39;&lt;/span&gt;, &lt;span style=&quot;color: rgb(206, 145, 120); font-size: 21px;&quot;&gt;&#39;虚拟dom2&#39;&lt;/span&gt;]&lt;/div&gt;&lt;div style=&quot;text-align: left; font-size: 21px;&quot;&gt;&lt;span style=&quot;color: rgb(128, 128, 128); font-size: 21px;&quot;&gt;&amp;lt;&lt;/span&gt;&lt;span style=&quot;color: rgb(78, 201, 176); font-size: 21px;&quot;&gt;div&lt;/span&gt;&lt;span style=&quot;color: rgb(128, 128, 128); font-size: 21px;&quot;&gt;&amp;gt;&lt;/span&gt;&lt;/div&gt;&lt;div style=&quot;text-align: left; font-size: 21px;&quot;&gt;  &lt;span style=&quot;color: rgb(86, 156, 214); font-size: 21px;&quot;&gt;{&lt;/span&gt;&lt;/div&gt;&lt;div style=&quot;text-align: left; font-size: 21px;&quot;&gt;&lt;span style=&quot;color: rgb(212, 212, 212); font-size: 21px;&quot;&gt;    &lt;/span&gt;&lt;span style=&quot;color: rgb(79, 193, 255); font-size: 21px;&quot;&gt;arrText&lt;/span&gt;&lt;span style=&quot;color: rgb(212, 212, 212); font-size: 21px;&quot;&gt;.&lt;/span&gt;&lt;span style=&quot;color: rgb(220, 220, 170); font-size: 21px;&quot;&gt;map&lt;/span&gt;&lt;span style=&quot;color: rgb(212, 212, 212); font-size: 21px;&quot;&gt;((&lt;/span&gt;&lt;span style=&quot;color: rgb(156, 220, 254); font-size: 21px;&quot;&gt;text&lt;/span&gt;&lt;span style=&quot;color: rgb(212, 212, 212); font-size: 21px;&quot;&gt;) &lt;/span&gt;&lt;span style=&quot;color: rgb(86, 156, 214); font-size: 21px;&quot;&gt;=&amp;gt;&lt;/span&gt;&lt;span style=&quot;color: rgb(212, 212, 212); font-size: 21px;&quot;&gt; {&lt;/span&gt;&lt;/div&gt;&lt;div style=&quot;text-align: left; font-size: 21px;&quot;&gt;&lt;span style=&quot;color: rgb(212, 212, 212); font-size: 21px;&quot;&gt;      &lt;/span&gt;&lt;span style=&quot;color: rgb(197, 134, 192); font-size: 21px;&quot;&gt;return&lt;/span&gt;&lt;span style=&quot;color: rgb(212, 212, 212); font-size: 21px;&quot;&gt; (&lt;/span&gt;&lt;/div&gt;&lt;div style=&quot;text-align: left; font-size: 21px;&quot;&gt;&lt;span style=&quot;color: rgb(212, 212, 212); font-size: 21px;&quot;&gt;        &lt;/span&gt;&lt;span style=&quot;color: rgb(128, 128, 128); font-size: 21px;&quot;&gt;&amp;lt;&lt;/span&gt;&lt;span style=&quot;color: rgb(86, 156, 214); font-size: 21px;&quot;&gt;div&lt;/span&gt;&lt;span style=&quot;color: rgb(212, 212, 212); font-size: 21px;&quot;&gt; className=&#39;text&#39;&lt;/span&gt;&lt;span style=&quot;color: rgb(128, 128, 128); font-size: 21px;&quot;&gt;&amp;gt;&lt;/span&gt;&lt;span style=&quot;color: rgb(86, 156, 214); font-size: 21px;&quot;&gt;{&lt;/span&gt;&lt;span style=&quot;color: rgb(156, 220, 254); font-size: 21px;&quot;&gt;text&lt;/span&gt;&lt;span style=&quot;color: rgb(86, 156, 214); font-size: 21px;&quot;&gt;}&lt;/span&gt;&lt;span style=&quot;color: rgb(128, 128, 128); font-size: 21px;&quot;&gt;&amp;lt;/&lt;/span&gt;&lt;span style=&quot;color: rgb(86, 156, 214); font-size: 21px;&quot;&gt;div&lt;/span&gt;&lt;span style=&quot;color: rgb(128, 128, 128); font-size: 21px;&quot;&gt;&amp;gt;&lt;/span&gt;&lt;/div&gt;&lt;div style=&quot;text-align: left; font-size: 21px;&quot;&gt;&lt;span style=&quot;color: rgb(212, 212, 212); font-size: 21px;&quot;&gt;      )&lt;/span&gt;&lt;/div&gt;&lt;div style=&quot;text-align: left; font-size: 21px;&quot;&gt;&lt;span style=&quot;color: rgb(212, 212, 212); font-size: 21px;&quot;&gt;    })&lt;/span&gt;&lt;/div&gt;&lt;div style=&quot;text-align: left; font-size: 21px;&quot;&gt;&lt;span style=&quot;color: rgb(212, 212, 212); font-size: 21px;&quot;&gt;  &lt;/span&gt;&lt;span style=&quot;color: rgb(86, 156, 214); font-size: 21px;&quot;&gt;}&lt;/span&gt;&lt;/div&gt;&lt;div style=&quot;text-align: left; font-size: 21px;&quot;&gt;&lt;span style=&quot;color: rgb(128, 128, 128); font-size: 21px;&quot;&gt;&amp;lt;/&lt;/span&gt;&lt;span style=&quot;color: rgb(86, 156, 214); font-size: 21px;&quot;&gt;div&lt;/span&gt;&lt;span style=&quot;color: rgb(128, 128, 128); font-size: 21px;&quot;&gt;&amp;gt;&lt;br style=&quot;font-size: 21px;&quot;&gt;&lt;/span&gt;&lt;/div&gt;&lt;/div&gt;" style="html=1;rounded=1;shadow=0;strokeWidth=8;fontSize=21;align=center;fillColor=#FF1900;strokeColor=#FFFFFF;gradientColor=default;gradientDirection=north;verticalAlign=middle;fontColor=#FFFFFF;labelBackgroundColor=none;labelBorderColor=none;textShadow=1;spacingTop=47;" parent="1" vertex="1">
          <mxGeometry x="130" y="380" width="580" height="430" as="geometry" />
        </mxCell>
        <mxCell id="60da8b9f42644d3a-9" value="" style="html=1;shadow=0;dashed=0;align=center;verticalAlign=middle;shape=mxgraph.arrows2.stylisedArrow;dy=0.6;dx=40;notch=15;feather=0.4;rounded=0;strokeWidth=1;fontSize=27;strokeColor=none;fillColor=#FF3333;direction=west;" parent="1" vertex="1">
          <mxGeometry x="686" y="960" width="223" height="60" as="geometry" />
        </mxCell>
        <mxCell id="60da8b9f42644d3a-17" value="&lt;div style=&quot;color: rgb(204, 204, 204); font-family: Menlo, Monaco, &amp;quot;Courier New&amp;quot;, monospace; font-weight: normal; font-size: 25px; line-height: 110%; white-space: pre;&quot;&gt;&lt;div style=&quot;font-size: 25px;&quot;&gt;&lt;span style=&quot;color: rgb(204, 204, 204); font-size: 25px;&quot;&gt;{&lt;/span&gt;&lt;/div&gt;&lt;div style=&quot;font-size: 25px;&quot;&gt;&lt;span style=&quot;color: rgb(204, 204, 204); font-size: 25px;&quot;&gt;  &lt;/span&gt;&lt;span style=&quot;color: rgb(156, 220, 254); font-size: 25px;&quot;&gt;type&lt;/span&gt;&lt;span style=&quot;color: rgb(156, 220, 254); font-size: 25px;&quot;&gt;:&lt;/span&gt;&lt;span style=&quot;color: rgb(204, 204, 204); font-size: 25px;&quot;&gt; &lt;/span&gt;&lt;span style=&quot;color: rgb(206, 145, 120); font-size: 25px;&quot;&gt;&#39;div&#39;&lt;/span&gt;&lt;span style=&quot;color: rgb(204, 204, 204); font-size: 25px;&quot;&gt;,&lt;/span&gt;&lt;/div&gt;&lt;div style=&quot;font-size: 25px;&quot;&gt;&lt;span style=&quot;color: rgb(204, 204, 204); font-size: 25px;&quot;&gt;  &lt;/span&gt;&lt;span style=&quot;color: rgb(156, 220, 254); font-size: 25px;&quot;&gt;props&lt;/span&gt;&lt;span style=&quot;color: rgb(156, 220, 254); font-size: 25px;&quot;&gt;:&lt;/span&gt;&lt;span style=&quot;color: rgb(204, 204, 204); font-size: 25px;&quot;&gt; {&lt;/span&gt;&lt;/div&gt;&lt;div style=&quot;font-size: 25px;&quot;&gt;&lt;span style=&quot;color: rgb(204, 204, 204); font-size: 25px;&quot;&gt;    &lt;/span&gt;&lt;span style=&quot;color: rgb(156, 220, 254); font-size: 25px;&quot;&gt;children&lt;/span&gt;&lt;span style=&quot;color: rgb(156, 220, 254); font-size: 25px;&quot;&gt;:&lt;/span&gt;&lt;span style=&quot;color: rgb(204, 204, 204); font-size: 25px;&quot;&gt; [&lt;/span&gt;&lt;/div&gt;&lt;div style=&quot;font-size: 25px;&quot;&gt;&lt;span style=&quot;color: rgb(204, 204, 204); font-size: 25px;&quot;&gt;      {&lt;/span&gt;&lt;/div&gt;&lt;div style=&quot;font-size: 25px;&quot;&gt;&lt;span style=&quot;color: rgb(204, 204, 204); font-size: 25px;&quot;&gt;        &lt;/span&gt;&lt;span style=&quot;color: rgb(156, 220, 254); font-size: 25px;&quot;&gt;type&lt;/span&gt;&lt;span style=&quot;color: rgb(156, 220, 254); font-size: 25px;&quot;&gt;:&lt;/span&gt;&lt;span style=&quot;color: rgb(204, 204, 204); font-size: 25px;&quot;&gt; &lt;/span&gt;&lt;span style=&quot;color: rgb(206, 145, 120); font-size: 25px;&quot;&gt;&#39;div&#39;&lt;/span&gt;&lt;span style=&quot;color: rgb(204, 204, 204); font-size: 25px;&quot;&gt;,&lt;/span&gt;&lt;/div&gt;&lt;div style=&quot;font-size: 25px;&quot;&gt;&lt;span style=&quot;color: rgb(204, 204, 204); font-size: 25px;&quot;&gt;        &lt;/span&gt;&lt;span style=&quot;color: rgb(156, 220, 254); font-size: 25px;&quot;&gt;className&lt;/span&gt;&lt;span style=&quot;color: rgb(156, 220, 254); font-size: 25px;&quot;&gt;:&lt;/span&gt;&lt;span style=&quot;color: rgb(206, 145, 120); font-size: 25px;&quot;&gt;&#39;text&#39;&lt;/span&gt;&lt;span style=&quot;color: rgb(204, 204, 204); font-size: 25px;&quot;&gt;,&lt;/span&gt;&lt;/div&gt;&lt;div style=&quot;font-size: 25px;&quot;&gt;&lt;span style=&quot;color: rgb(204, 204, 204); font-size: 25px;&quot;&gt;        &lt;/span&gt;&lt;span style=&quot;color: rgb(156, 220, 254); font-size: 25px;&quot;&gt;props&lt;/span&gt;&lt;span style=&quot;color: rgb(156, 220, 254); font-size: 25px;&quot;&gt;:&lt;/span&gt;&lt;span style=&quot;color: rgb(204, 204, 204); font-size: 25px;&quot;&gt; {&lt;/span&gt;&lt;/div&gt;&lt;div style=&quot;font-size: 25px; line-height: 146%;&quot;&gt;&lt;span style=&quot;color: rgb(204, 204, 204); font-size: 25px;&quot;&gt;          &lt;/span&gt;&lt;span style=&quot;color: rgb(156, 220, 254); font-size: 25px;&quot;&gt;children&lt;/span&gt;&lt;span style=&quot;color: rgb(156, 220, 254); font-size: 25px;&quot;&gt;:&lt;/span&gt;&lt;span style=&quot;color: rgb(206, 145, 120); font-size: 25px;&quot;&gt;&#39;虚拟dom1&#39;&lt;/span&gt;&lt;/div&gt;&lt;div style=&quot;font-size: 25px;&quot;&gt;&lt;span style=&quot;color: rgb(204, 204, 204); font-size: 25px;&quot;&gt;        },&lt;/span&gt;&lt;/div&gt;&lt;div style=&quot;font-size: 25px;&quot;&gt;&lt;span style=&quot;color: rgb(204, 204, 204); font-size: 25px;&quot;&gt;        &lt;/span&gt;&lt;span style=&quot;color: rgb(156, 220, 254); font-size: 25px;&quot;&gt;key&lt;/span&gt;&lt;span style=&quot;color: rgb(156, 220, 254); font-size: 25px;&quot;&gt;:&lt;/span&gt;&lt;span style=&quot;color: rgb(204, 204, 204); font-size: 25px;&quot;&gt; &lt;/span&gt;&lt;span style=&quot;color: rgb(86, 156, 214); font-size: 25px;&quot;&gt;null&lt;/span&gt;&lt;/div&gt;&lt;div style=&quot;font-size: 25px;&quot;&gt;&lt;span style=&quot;color: rgb(204, 204, 204); font-size: 25px;&quot;&gt;      },&lt;/span&gt;&lt;/div&gt;&lt;div style=&quot;font-size: 25px; line-height: 110%;&quot;&gt;&lt;span style=&quot;color: rgb(204, 204, 204); font-size: 25px;&quot;&gt;      {&lt;/span&gt;&lt;/div&gt;&lt;div style=&quot;font-size: 25px;&quot;&gt;&lt;span style=&quot;color: rgb(204, 204, 204); font-size: 25px;&quot;&gt;        &lt;/span&gt;&lt;span style=&quot;color: rgb(156, 220, 254); font-size: 25px;&quot;&gt;type&lt;/span&gt;&lt;span style=&quot;color: rgb(156, 220, 254); font-size: 25px;&quot;&gt;:&lt;/span&gt;&lt;span style=&quot;color: rgb(204, 204, 204); font-size: 25px;&quot;&gt; &lt;/span&gt;&lt;span style=&quot;color: rgb(206, 145, 120); font-size: 25px;&quot;&gt;&#39;div&#39;&lt;/span&gt;&lt;span style=&quot;color: rgb(204, 204, 204); font-size: 25px;&quot;&gt;,&lt;/span&gt;&lt;/div&gt;&lt;div style=&quot;font-size: 25px;&quot;&gt;&lt;span style=&quot;color: rgb(204, 204, 204); font-size: 25px;&quot;&gt;        &lt;/span&gt;&lt;span style=&quot;color: rgb(156, 220, 254); font-size: 25px;&quot;&gt;className&lt;/span&gt;&lt;span style=&quot;color: rgb(156, 220, 254); font-size: 25px;&quot;&gt;:&lt;/span&gt;&lt;span style=&quot;color: rgb(206, 145, 120); font-size: 25px;&quot;&gt;&#39;text&#39;&lt;/span&gt;&lt;span style=&quot;color: rgb(204, 204, 204); font-size: 25px;&quot;&gt;,&lt;/span&gt;&lt;/div&gt;&lt;div style=&quot;font-size: 25px;&quot;&gt;&lt;span style=&quot;color: rgb(204, 204, 204); font-size: 25px;&quot;&gt;        &lt;/span&gt;&lt;span style=&quot;color: rgb(156, 220, 254); font-size: 25px;&quot;&gt;props&lt;/span&gt;&lt;span style=&quot;color: rgb(156, 220, 254); font-size: 25px;&quot;&gt;:&lt;/span&gt;&lt;span style=&quot;color: rgb(204, 204, 204); font-size: 25px;&quot;&gt; {&lt;/span&gt;&lt;/div&gt;&lt;div style=&quot;font-size: 25px;&quot;&gt;&lt;span style=&quot;color: rgb(204, 204, 204); font-size: 25px;&quot;&gt;          &lt;/span&gt;&lt;span style=&quot;color: rgb(156, 220, 254); font-size: 25px;&quot;&gt;children&lt;/span&gt;&lt;span style=&quot;color: rgb(156, 220, 254); font-size: 25px;&quot;&gt;:&lt;/span&gt;&lt;span style=&quot;color: rgb(206, 145, 120); font-size: 25px;&quot;&gt;&#39;虚拟dom2&#39;&lt;/span&gt;&lt;/div&gt;&lt;div style=&quot;font-size: 25px;&quot;&gt;&lt;span style=&quot;color: rgb(204, 204, 204); font-size: 25px;&quot;&gt;        },&lt;/span&gt;&lt;/div&gt;&lt;div style=&quot;font-size: 25px;&quot;&gt;&lt;span style=&quot;color: rgb(204, 204, 204); font-size: 25px;&quot;&gt;        &lt;/span&gt;&lt;span style=&quot;color: rgb(156, 220, 254); font-size: 25px;&quot;&gt;key&lt;/span&gt;&lt;span style=&quot;color: rgb(156, 220, 254); font-size: 25px;&quot;&gt;:&lt;/span&gt;&lt;span style=&quot;color: rgb(204, 204, 204); font-size: 25px;&quot;&gt; &lt;/span&gt;&lt;span style=&quot;color: rgb(86, 156, 214); font-size: 25px;&quot;&gt;null&lt;/span&gt;&lt;/div&gt;&lt;div style=&quot;font-size: 25px;&quot;&gt;&lt;span style=&quot;color: rgb(204, 204, 204); font-size: 25px;&quot;&gt;      }&lt;/span&gt;&lt;/div&gt;&lt;div style=&quot;font-size: 25px;&quot;&gt;&lt;span style=&quot;color: rgb(204, 204, 204); font-size: 25px;&quot;&gt;    ]&lt;/span&gt;&lt;/div&gt;&lt;div style=&quot;font-size: 25px;&quot;&gt;&lt;span style=&quot;color: rgb(204, 204, 204); font-size: 25px;&quot;&gt;  },&lt;/span&gt;&lt;/div&gt;&lt;div style=&quot;font-size: 25px;&quot;&gt;&lt;span style=&quot;color: rgb(204, 204, 204); font-size: 25px;&quot;&gt;}&lt;/span&gt;&lt;/div&gt;&lt;/div&gt;" style="whiteSpace=wrap;html=1;rounded=1;shadow=0;strokeWidth=8;fontSize=25;align=left;fillColor=#FF1900;strokeColor=#FFFFFF;gradientColor=#000000;gradientDirection=north;labelBackgroundColor=none;spacingLeft=32;spacingTop=42;" parent="1" vertex="1">
          <mxGeometry x="909" y="400" width="501" height="850" as="geometry" />
        </mxCell>
        <mxCell id="60da8b9f42644d3a-23" value="" style="html=1;shadow=0;dashed=0;align=center;verticalAlign=middle;shape=mxgraph.arrows2.stylisedArrow;dy=0.6;dx=40;notch=15;feather=0.4;rounded=0;strokeWidth=1;fontSize=27;strokeColor=none;fillColor=#FF3333;" parent="1" vertex="1">
          <mxGeometry x="720" y="600" width="194" height="60" as="geometry" />
        </mxCell>
        <mxCell id="60da8b9f42644d3a-24" value="&lt;div style=&quot;color: rgb(204, 204, 204); font-family: Menlo, Monaco, &amp;quot;Courier New&amp;quot;, monospace; font-size: 25px; line-height: 24px; white-space: pre;&quot;&gt;&lt;div style=&quot;font-size: 25px;&quot;&gt;&lt;span style=&quot;color: rgb(128, 128, 128); font-size: 25px;&quot;&gt;&amp;lt;&lt;/span&gt;&lt;span style=&quot;color: rgb(86, 156, 214); font-size: 25px;&quot;&gt;div&lt;/span&gt;&lt;span style=&quot;color: rgb(128, 128, 128); font-size: 25px;&quot;&gt;&amp;gt;&lt;/span&gt;&lt;/div&gt;&lt;div style=&quot;font-size: 25px;&quot;&gt;  &lt;span style=&quot;color: rgb(128, 128, 128); font-size: 25px;&quot;&gt;&amp;lt;&lt;/span&gt;&lt;span style=&quot;color: rgb(86, 156, 214); font-size: 25px;&quot;&gt;div&lt;/span&gt;&lt;span style=&quot;color: rgb(128, 128, 128); font-size: 25px;&quot;&gt;&amp;gt;&lt;/span&gt;虚拟dom1&lt;span style=&quot;color: rgb(128, 128, 128); font-size: 25px;&quot;&gt;&amp;lt;/&lt;/span&gt;&lt;span style=&quot;color: rgb(86, 156, 214); font-size: 25px;&quot;&gt;div&lt;/span&gt;&lt;span style=&quot;color: rgb(128, 128, 128); font-size: 25px;&quot;&gt;&amp;gt;&lt;/span&gt;&lt;/div&gt;&lt;div style=&quot;font-size: 25px;&quot;&gt;  &lt;span style=&quot;color: rgb(128, 128, 128); font-size: 25px;&quot;&gt;&amp;lt;&lt;/span&gt;&lt;span style=&quot;color: rgb(86, 156, 214); font-size: 25px;&quot;&gt;div&lt;/span&gt;&lt;span style=&quot;color: rgb(128, 128, 128); font-size: 25px;&quot;&gt;&amp;gt;&lt;/span&gt;虚拟dom2&lt;span style=&quot;color: rgb(128, 128, 128); font-size: 25px;&quot;&gt;&amp;lt;/&lt;/span&gt;&lt;span style=&quot;color: rgb(86, 156, 214); font-size: 25px;&quot;&gt;div&lt;/span&gt;&lt;span style=&quot;color: rgb(128, 128, 128); font-size: 25px;&quot;&gt;&amp;gt;&lt;/span&gt;&lt;/div&gt;&lt;div style=&quot;font-size: 25px;&quot;&gt;&lt;span style=&quot;color: rgb(128, 128, 128); font-size: 25px;&quot;&gt;&amp;lt;/&lt;/span&gt;&lt;span style=&quot;color: rgb(86, 156, 214); font-size: 25px;&quot;&gt;div&lt;/span&gt;&lt;span style=&quot;color: rgb(128, 128, 128); font-size: 25px;&quot;&gt;&amp;gt;&lt;/span&gt;&lt;/div&gt;&lt;/div&gt;" style="whiteSpace=wrap;html=1;rounded=1;shadow=0;strokeWidth=8;fontSize=25;align=left;fillColor=#FF1900;strokeColor=#FFFFFF;gradientColor=default;gradientDirection=north;spacingLeft=30;labelBackgroundColor=none;spacingTop=32;" parent="1" vertex="1">
          <mxGeometry x="200" y="820" width="440" height="380" as="geometry" />
        </mxCell>
        <mxCell id="X7ow8RD0LWSZgcqa5ja2-2" style="edgeStyle=orthogonalEdgeStyle;rounded=0;orthogonalLoop=1;jettySize=auto;html=1;exitX=0.5;exitY=1;exitDx=0;exitDy=0;" edge="1" parent="1" source="60da8b9f42644d3a-17" target="60da8b9f42644d3a-17">
          <mxGeometry relative="1" as="geometry" />
        </mxCell>
        <mxCell id="X7ow8RD0LWSZgcqa5ja2-3" value="&lt;p style=&quot;line-height: 130%; font-size: 46px;&quot;&gt;JSX&lt;/p&gt;" style="whiteSpace=wrap;html=1;fillColor=#3399FF;fontSize=46;fontStyle=1;rounded=1;" vertex="1" parent="1">
          <mxGeometry x="160" y="400" width="510" height="60" as="geometry" />
        </mxCell>
        <mxCell id="X7ow8RD0LWSZgcqa5ja2-4" value="虚拟DOM" style="rounded=1;whiteSpace=wrap;html=1;fillColor=#3399FF;fontSize=42;" vertex="1" parent="1">
          <mxGeometry x="950" y="440" width="420" height="60" as="geometry" />
        </mxCell>
        <mxCell id="X7ow8RD0LWSZgcqa5ja2-5" value="真实DOM" style="rounded=1;whiteSpace=wrap;html=1;fillColor=#3399FF;fontColor=default;fontSize=44;" vertex="1" parent="1">
          <mxGeometry x="240" y="860" width="350" height="80" as="geometry" />
        </mxCell>
      </root>
    </mxGraphModel>
  </diagram>
</mxfile>
